<?xml version="1.0" encoding="iso-8859-1"?>
<!-- Generator: Adobe Illustrator 16.0.0, SVG Export Plug-In . SVG Version: 6.00 Build 0)  -->
<!DOCTYPE svg PUBLIC "-//W3C//DTD SVG 1.1//EN" "http://www.w3.org/Graphics/SVG/1.1/DTD/svg11.dtd">
<svg version="1.1" id="Capa_1" xmlns="http://www.w3.org/2000/svg" xmlns:xlink="http://www.w3.org/1999/xlink" x="0px" y="0px"
	 width="473.435px" height="473.435px" viewBox="0 0 473.435 473.435" style="enable-background:new 0 0 473.435 473.435;"
	 xml:space="preserve">
<g>
	<path d="M473.435,160.885v133.669H254.932V160.885H473.435z M34.282,187.661H13.284v18.637v37.275v25.068h20.998v-25.068h89.542
		v-37.275H34.282V187.661z M456.73,353.686h-26.994v-28.277H218.94c-5.677,0-10.285-4.61-10.285-10.284v-24.85h16.713v-16.277
		h-16.713v-22.284h16.713v-16.278h-16.713v-19.707h16.713v-16.284h-16.713v-22.278h16.713v-16.281h-16.713v-15.424
		c0-5.677,4.607-10.282,10.285-10.282h210.796v-15.424h26.994c5.681,0,10.279-4.604,10.279-10.281V73.479
		c0-5.68-4.599-10.285-10.279-10.285H251.935c-5.681,0-10.285,4.604-10.285,10.285v6.425h-84.408
		c-5.677,0-10.285,4.607-10.285,10.285v70.695h-13.279v16.281h13.279v22.278h-13.279v16.284h13.279v19.707h-13.279v16.278h13.279
		v22.284h-13.279v16.277h13.279v82.686c0,5.681,4.607,10.285,10.285,10.285h84.402v16.71c0,5.68,4.61,10.284,10.285,10.284H456.73
		c5.681,0,10.279-4.604,10.279-10.284V363.97C467.01,358.284,462.411,353.686,456.73,353.686z M38.562,272.921h-28.28
		C4.604,272.921,0,277.531,0,283.205v3.429c0,5.674,4.604,10.285,10.282,10.285h28.28c5.677,0,10.282-4.611,10.282-10.285v-3.429
		C48.844,277.531,44.239,272.921,38.562,272.921z M10.282,182.516h28.28c5.677,0,10.282-4.599,10.282-10.282v-3.425
		c0-5.681-4.604-10.285-10.282-10.285h-28.28C4.604,158.523,0,163.128,0,168.809v3.425C0,177.917,4.599,182.516,10.282,182.516z"/>
</g>
<g>
</g>
<g>
</g>
<g>
</g>
<g>
</g>
<g>
</g>
<g>
</g>
<g>
</g>
<g>
</g>
<g>
</g>
<g>
</g>
<g>
</g>
<g>
</g>
<g>
</g>
<g>
</g>
<g>
</g>
</svg>
