<?xml version="1.0" encoding="iso-8859-1"?>
<!-- Generator: Adobe Illustrator 18.1.1, SVG Export Plug-In . SVG Version: 6.00 Build 0)  -->
<svg version="1.1" id="Capa_1" xmlns="http://www.w3.org/2000/svg" xmlns:xlink="http://www.w3.org/1999/xlink" x="0px" y="0px"
	 viewBox="0 0 17.002 17.002" style="enable-background:new 0 0 17.002 17.002;" xml:space="preserve">
<g>
	<g>
		<path style="fill:#030104;" d="M14.467,0H2.535C2.284,0,2.079,0.204,2.079,0.457v16.088c0,0.253,0.205,0.457,0.456,0.457h8.901
			c0.129,0,0.254-0.057,0.34-0.151l3.03-3.398c0.075-0.082,0.117-0.189,0.117-0.302V0.457C14.924,0.204,14.72,0,14.467,0z
			 M13.484,11.884l-2.719-0.003l0,0c-0.137,0-0.264,0.053-0.359,0.148c-0.096,0.094-0.149,0.225-0.146,0.357l0.008,3.405H3.45V1.145
			h10.034V11.884z"/>
		<path style="fill:#030104;" d="M7.513,10.193c0.045,0.023,0.094,0.035,0.144,0.035c0.065,0,0.131-0.021,0.186-0.062l2.631-1.91
			c0.084-0.062,0.133-0.157,0.133-0.257c0-0.102-0.05-0.196-0.133-0.256L7.843,5.831C7.748,5.762,7.62,5.751,7.514,5.805
			C7.408,5.859,7.341,5.968,7.341,6.087v3.824C7.34,10.032,7.407,10.14,7.513,10.193z"/>
		<path style="fill:#030104;" d="M8.502,11.838c2.115,0,3.838-1.722,3.838-3.838s-1.723-3.838-3.838-3.838
			C6.386,4.162,4.664,5.884,4.664,8C4.664,10.116,6.386,11.838,8.502,11.838z M8.502,4.802c1.765,0,3.199,1.434,3.199,3.198
			c0,1.765-1.435,3.198-3.199,3.198c-1.763,0-3.199-1.433-3.199-3.198C5.303,6.236,6.738,4.802,8.502,4.802z"/>
	</g>
</g>
<g>
</g>
<g>
</g>
<g>
</g>
<g>
</g>
<g>
</g>
<g>
</g>
<g>
</g>
<g>
</g>
<g>
</g>
<g>
</g>
<g>
</g>
<g>
</g>
<g>
</g>
<g>
</g>
<g>
</g>
</svg>
